/* XPM */
static char * bld129_xpm[] = {
"129 129 3 1",
" 	c None",
".	c #000000",
"+	c #FFFFFF",
"                                                                                                                                 ",
"                                                                                                                                 ",
"                                                                                                                                 ",
"                                                                                                                                 ",
"                                                                                                                                 ",
"                                                                                                                                 ",
"                                                                                                                                 ",
"                                                                                                                                 ",
"                                                             ......                                                              ",
"                                                           ..........                                                            ",
"                                                          ............                                                           ",
"                                                         ..............                                                          ",
"                                                        ......++++......                                                         ",
"                                                        ....++++++++....                                                         ",
"                                                       .....++++++++.....                                                        ",
"                                                       ....++++++++++....                                                        ",
"                                                       ....++++++++++....                                                        ",
"                                                       ....++++++++++....                                                        ",
"                                                       .....++++++++.....                                                        ",
"                                                        ....++++++++....                                                         ",
"                                                        ......++++......                                                         ",
"                                                         ..............                                                          ",
"                                                          ............                                                           ",
"                                                           ..........                                                            ",
"                                                          ............                                                           ",
"                                                        .......++.......                                                         ",
"                                                       .......++++.......                                                        ",
"                                                     .......++++++++.......                                                      ",
"                                                    .......++++++++++.......                                                     ",
"                                                  .......++++++++++++++.......                                                   ",
"                                                 .......++++++++++++++++.......                                                  ",
"                                                ......++++++++++++++++++++......                                                 ",
"                                              .......++++++++++++++++++++++.......                                               ",
"                                             ......++++++++++++++++++++++++++......                                              ",
"                                            ......++++++++++++++++++++++++++++......                                             ",
"                                           ......++++++++++++++++++++++++++++++......                                            ",
"                                          .....++++++++++++++++++++++++++++++++++.....                                           ",
"                                         .....++++++++++++++++++++++++++++++++++++.....                                          ",
"                                        .....++++++++++++++++++++++++++++++++++++++.....                                         ",
"                                       .....++++++++++++++++++++++++++++++++++++++++.....                                        ",
"                                      .....++++++++++++++++++++++++++++++++++++++++++.....                                       ",
"                                     .....+++++++++++++++++++++..+++++++++++++++++++++.....                                      ",
"                                     ....+++++++++++++++++++++....+++++++++++++++++++++....                                      ",
"                                    .....+++++++++++++++++++++....+++++++++++++++++++++.....                                     ",
"                                    ....++++++++++++++++++++++....++++++++++++++++++++++....                                     ",
"                                   .....++++++++++++++++++++++....++++++++++++++++++++++.....                                    ",
"                                   ....+++++++++++++++++++++++....+++++++++++++++++++++++....                                    ",
"                                  .....+++++++++++++++++++++++....+++++++++++++++++++++++.....                                   ",
"                                  ....++++++++++++++++++++++++....++++++++++++++++++++++++....                                   ",
"                                  ....++++++++++++++++++++++++....++++++++++++++++++++++++....                                   ",
"                                 .....++++++++++++++++++++++++....++++++++++++++++++++++++.....                                  ",
"                                 ....++++++++++++++++......................++++++++++++++++....                                  ",
"                                 ....+++++++++++++++........................+++++++++++++++....                                  ",
"                                 ....+++++++++++++++........................+++++++++++++++....                                  ",
"                                 ....++++++++++++++++......................++++++++++++++++....                                  ",
"                                 ....+++++++++++++++++++++++++....+++++++++++++++++++++++++....                                  ",
"                                 ....+++++++++++++++++++++++++....+++++++++++++++++++++++++....                                  ",
"                                 ....+++++++++++++++++++++++++....+++++++++++++++++++++++++....                                  ",
"                                 ....+++++++++++++++++++++++++....+++++++++++++++++++++++++....                                  ",
"                                 ....+++++++++++++++++++++++++....+++++++++++++++++++++++++....                                  ",
"                                 .....++++++++++++++++++++++++....++++++++++++++++++++++++.....                                  ",
"                                  ....++++++++++++++++++++++++....++++++++++++++++++++++++....                                   ",
"                                  ....++++++++++++++++++++++++....++++++++++++++++++++++++....                                   ",
"                                  ....+++++++++++++++++++++++++..+++++++++++++++++++++++++....                                   ",
"                                  .....++++++++++++++++++++++++++++++++++++++++++++++++++.....                                   ",
"                                   ....++++++++++++++++++++++++++++++++++++++++++++++++++....                                    ",
"                                   .....++++++++++++++++++++++++++++++++++++++++++++++++.....                                    ",
"                                    ....++++++++++++++++++++++++++++++++++++++++++++++++....                                     ",
"                                    .....++++++++++++++++++++++++++++++++++++++++++++++.....                                     ",
"                                     ....++++++++++++++++++++++++++++++++++++++++++++++....                                      ",
"                                     .....++++++++++++++++++++++++++++++++++++++++++++.....                                      ",
"                                      ....++++++++++++++++++++++++++++++++++++++++++++....                                       ",
"                                      .....++++++++++++++++++++++++++++++++++++++++++.....                                       ",
"                                       .....++++++++++++++++++++++++++++++++++++++++.....                                        ",
"                                        .....+++++............................+++++.....                                         ",
"                                         ..............................................                                          ",
"                                          ............................................                                           ",
"                                           ..........................................                                            ",
"                                          .........++++++++++++++++++++++++++.........                                           ",
"                                          ....++++++++++++++++++++++++++++++++++++....                                           ",
"                                          ....++++++++++++++++++++++++++++++++++++....                                           ",
"                                         .....++++++++++++++++++++++++++++++++++++.....                                          ",
"                                         ....++++++++++++++++++++++++++++++++++++++....                                          ",
"                                         ....++++++++++++++++++++++++++++++++++++++....                                          ",
"                                        .....++++++++++++++++++++++++++++++++++++++.....                                         ",
"                                        ....++++++++........................++++++++....                                         ",
"                                        ................................................                                         ",
"                                       ..................................................                                        ",
"                                       ..................................................                                        ",
"                                       ..............++++++++++++++++++++++..............                                        ",
"                                      .......++++++++++++++++++++++++++++++++++++++.......                                       ",
"                                      ....++++++++++++++++++++++++++++++++++++++++++++....                                       ",
"                                     .....++++++++++++++++++++++++++++++++++++++++++++.....                                      ",
"                                     .....++++++++++++++++++++++++++++++++++++++++++++.....                                      ",
"                                     ..........++++++++++++++++++++++++++++++++++..........                                      ",
"                                     .................++++++++++++++++++++.................                                      ",
"                                      ....................................................                                       ",
"                                         ..............................................                                          ",
"                                              ....................................                                               ",
"                                                     ......................                                                      ",
"                                                         ..............                                                          ",
"                                                       .......++++.......                                                        ",
"                                                     ........++++++........                                                      ",
"                     .................            .........++++++++++.........            .................                      ",
"                ..........................................++++++++++++..........................................                 ",
"              ..........................................++++++++++++++++..........................................               ",
"            ..........................................++++++++++++++++++++..........................................             ",
"          ............+++++++++++++++..............++++++++++++++++++++++++++..............+++++++++++++++............           ",
"         ........++++++++++++++++++++++++++++++++++++++++++++++++++++++++++++++++++++++++++++++++++++++++++++++........          ",
"        .......++++++++++++++++++++++++++++++++++++++++++++++++..++++++++++++++++++++++++++++++++++++++++++++++++.......         ",
"        .....++++++++++++++++++++++++++++++++++++++++++++++++......++++++++++++++++++++++++++++++++++++++++++++++++.....         ",
"         .....+++++++++++++++++++++++++++++++++++++++++++++..........+++++++++++++++++++++++++++++++++++++++++++++.....          ",
"          ....+++++++++++++++++++++++++++++++++++++++++++..............+++++++++++++++++++++++++++++++++++++++++++....           ",
"          .....+++++++++++++++++++++++++++++++++++++++....................+++++++++++++++++++++++++++++++++++++++.....           ",
"           .....++++++................+++++++++++++...........    ...........+++++++++++++................++++++.....            ",
"            ....+++.........................................        .........................................+++....             ",
"            ..............................................            ..............................................             ",
"             ..........................................                  ..........................................              ",
"              .........              ...............                        ...............              .........               ",
"              ......                                                                                        ......               ",
"               ...                                                                                            ...                ",
"                                                                                                                                 ",
"                                                                                                                                 ",
"                                                                                                                                 ",
"                                                                                                                                 ",
"                                                                                                                                 ",
"                                                                                                                                 ",
"                                                                                                                                 ",
"                                                                                                                                 "};
