/* XPM */
static char *qld129[] = {
/* columns rows colors chars-per-pixel */
"129 129 3 1 ",
"  c black",
". c white",
"X c None",
/* pixels */
"XXXXXXXXXXXXXXXXXXXXXXXXXXXXXXXXXXXXXXXXXXXXXXXXXXXXXXXXXXXXXXXXXXXXXXXXXXXXXXXXXXXXXXXXXXXXXXXXXXXXXXXXXXXXXXXXXXXXXXXXXXXXXXXXX",
"XXXXXXXXXXXXXXXXXXXXXXXXXXXXXXXXXXXXXXXXXXXXXXXXXXXXXXXXXXXXXXXXXXXXXXXXXXXXXXXXXXXXXXXXXXXXXXXXXXXXXXXXXXXXXXXXXXXXXXXXXXXXXXXXX",
"XXXXXXXXXXXXXXXXXXXXXXXXXXXXXXXXXXXXXXXXXXXXXXXXXXXXXXXXXXXXXXXXXXXXXXXXXXXXXXXXXXXXXXXXXXXXXXXXXXXXXXXXXXXXXXXXXXXXXXXXXXXXXXXXX",
"XXXXXXXXXXXXXXXXXXXXXXXXXXXXXXXXXXXXXXXXXXXXXXXXXXXXXXXXXXXXXXXXXXXXXXXXXXXXXXXXXXXXXXXXXXXXXXXXXXXXXXXXXXXXXXXXXXXXXXXXXXXXXXXXX",
"XXXXXXXXXXXXXXXXXXXXXXXXXXXXXXXXXXXXXXXXXXXXXXXXXXXXXXXXXXXXXXXXXXXXXXXXXXXXXXXXXXXXXXXXXXXXXXXXXXXXXXXXXXXXXXXXXXXXXXXXXXXXXXXXX",
"XXXXXXXXXXXXXXXXXXXXXXXXXXXXXXXXXXXXXXXXXXXXXXXXXXXXXXXXXXXXXXXXXXXXXXXXXXXXXXXXXXXXXXXXXXXXXXXXXXXXXXXXXXXXXXXXXXXXXXXXXXXXXXXXX",
"XXXXXXXXXXXXXXXXXXXXXXXXXXXXXXXXXXXXXXXXXXXXXXXXXXXXXXXXXXXXXXXXXXXXXXXXXXXXXXXXXXXXXXXXXXXXXXXXXXXXXXXXXXXXXXXXXXXXXXXXXXXXXXXXX",
"XXXXXXXXXXXXXXXXXXXXXXXXXXXXXXXXXXXXXXXXXXXXXXXXXXXXXXXXXXXXXXXXXXXXXXXXXXXXXXXXXXXXXXXXXXXXXXXXXXXXXXXXXXXXXXXXXXXXXXXXXXXXXXXXX",
"XXXXXXXXXXXXXXXXXXXXXXXXXXXXXXXXXXXXXXXXXXXXXXXXXXXXXXXXXXXXX      XXXXXXXXXXXXXXXXXXXXXXXXXXXXXXXXXXXXXXXXXXXXXXXXXXXXXXXXXXXXXX",
"XXXXXXXXXXXXXXXXXXXXXXXXXXXXXXXXXXXXXXXXXXXXXXXXXXXXXXXXXXX          XXXXXXXXXXXXXXXXXXXXXXXXXXXXXXXXXXXXXXXXXXXXXXXXXXXXXXXXXXXX",
"XXXXXXXXXXXXXXXXXXXXXXXXXXXXXXXXXXXXXXXXXXXXXXXXXXXXXXXXXX            XXXXXXXXXXXXXXXXXXXXXXXXXXXXXXXXXXXXXXXXXXXXXXXXXXXXXXXXXXX",
"XXXXXXXXXXXXXXXXXXXXXXXXXXXXXXXXXXXXXXXXXXXXXXXXXXXXXXXXX              XXXXXXXXXXXXXXXXXXXXXXXXXXXXXXXXXXXXXXXXXXXXXXXXXXXXXXXXXX",
"XXXXXXXXXXXXXXXXXXXXXXXXXXXXXXXXXX     XXXXXXXXXXXXXXXXXX     ....     XXXXXXXXXXXXXXXXXX     XXXXXXXXXXXXXXXXXXXXXXXXXXXXXXXXXXX",
"XXXXXXXXXXXXXXXXXXXXXXXXXXXXXXXX         XXXXXXXXXXXXXXX     ......     XXXXXXXXXXXXXXX         XXXXXXXXXXXXXXXXXXXXXXXXXXXXXXXXX",
"XXXXXXXXXXXXXXXXXXXXXXXXXXXXXXX           XXXXXXXXXXXXXX    ........    XXXXXXXXXXXXXX           XXXXXXXXXXXXXXXXXXXXXXXXXXXXXXXX",
"XXXXXXXXXXXXXXXXXXXXXXXXXXXXXX             XXXXXXXXXXXXX    ........    XXXXXXXXXXXXX             XXXXXXXXXXXXXXXXXXXXXXXXXXXXXXX",
"XXXXXXXXXXXXXXXXXXXXXXXXXXXXX      ...     XXXXXXXXXXXXX    ........    XXXXXXXXXXXXX     ...      XXXXXXXXXXXXXXXXXXXXXXXXXXXXXX",
"XXXXXXXXXXXXXXXXXXXXXXXXXXXXX    ......     XXXXXXXXXXXX     ......     XXXXXXXXXXXX     ......    XXXXXXXXXXXXXXXXXXXXXXXXXXXXXX",
"XXXXXXXXXXXXXXXXXXXXXXXXXXXX     .......    XXXXXXXXXXXXX    ......    XXXXXXXXXXXXX    .......     XXXXXXXXXXXXXXXXXXXXXXXXXXXXX",
"XXXXXXXXXXXXXXXXXXXXXXXXXXXX    ........    XXXXXXXXXXXXX      ..      XXXXXXXXXXXXX    ........    XXXXXXXXXXXXXXXXXXXXXXXXXXXXX",
"XXXXXXXXXXXXXXXXXXXXXXXXXXXX    ........    XXXXXXXXXXXXXX            XXXXXXXXXXXXXX    ........    XXXXXXXXXXXXXXXXXXXXXXXXXXXXX",
"XXXXXXXXXXXXXXXXXXXXXXXXXXXX     ......     XXXXXXXXXXXXXXX          XXXXXXXXXXXXXXX     ......     XXXXXXXXXXXXXXXXXXXXXXXXXXXXX",
"XXXXXXXXXXXXXXXXXXXXXXXXXXXXX    ......    XXXXXXXXXXXXXXXXX        XXXXXXXXXXXXXXXXX    ......    XXXXXXXXXXXXXXXXXXXXXXXXXXXXXX",
"XXXXXXXX      XXXXXXXXXXXXXXX      ..      XXXXXXXXXXXXXXXXXXX    XXXXXXXXXXXXXXXXXXX      ..      XXXXXXXXXXXXXXX      XXXXXXXXX",
"XXXXXX          XXXXXXXXXXXXXX            XXXXXXXXXXXXXXXXXXX      XXXXXXXXXXXXXXXXXXX            XXXXXXXXXXXXXX          XXXXXXX",
"XXXXX            XXXXXXXXXXXXXX          XXXXXXXXXXXXXXXXXXXX      XXXXXXXXXXXXXXXXXXXX          XXXXXXXXXXXXXX            XXXXXX",
"XXXX              XXXXXXXXXXXXXX        XXXXXXXXXXXXXXXXXXXXX      XXXXXXXXXXXXXXXXXXXXX        XXXXXXXXXXXXXX              XXXXX",
"XXX      ....     XXXXXXXXXXXXXXXX      XXXXXXXXXXXXXXXXXXXXX      XXXXXXXXXXXXXXXXXXXXX      XXXXXXXXXXXXXXXX     ....      XXXX",
"XXX    .......     XXXXXXXXXXXXXXXX     XXXXXXXXXXXXXXXXXXXX        XXXXXXXXXXXXXXXXXXXX     XXXXXXXXXXXXXXXX     .......    XXXX",
"XXX    ........    XXXXXXXXXXXXXXXX     XXXXXXXXXXXXXXXXXXXX        XXXXXXXXXXXXXXXXXXXX     XXXXXXXXXXXXXXXX    ........    XXXX",
"XXX    ........    XXXXXXXXXXXXXXXX      XXXXXXXXXXXXXXXXXXX        XXXXXXXXXXXXXXXXXXX      XXXXXXXXXXXXXXXX    ........    XXXX",
"XXX    ........    XXXXXXXXXXXXXXXX      XXXXXXXXXXXXXXXXXXX        XXXXXXXXXXXXXXXXXXX      XXXXXXXXXXXXXXXX    ........    XXXX",
"XXX    .......     XXXXXXXXXXXXXXXX      XXXXXXXXXXXXXXXXXXX        XXXXXXXXXXXXXXXXXXX      XXXXXXXXXXXXXXXX     .......    XXXX",
"XXX      .....    XXXXXXXXXXXXXXXXX       XXXXXXXXXXXXXXXXX          XXXXXXXXXXXXXXXXX       XXXXXXXXXXXXXXXXX    .....      XXXX",
"XXXX              XXXXXXXXXXXXXXXXX       XXXXXXXXXXXXXXXXX    ..    XXXXXXXXXXXXXXXXX       XXXXXXXXXXXXXXXXX              XXXXX",
"XXXXX            XXXXXXXXXXXXXXXXXX       XXXXXXXXXXXXXXXXX    ..    XXXXXXXXXXXXXXXXX       XXXXXXXXXXXXXXXXXX            XXXXXX",
"XXXXXX          XXXXXXXXXXXXXXXXXXX        XXXXXXXXXXXXXXXX    ..    XXXXXXXXXXXXXXXX        XXXXXXXXXXXXXXXXXXX          XXXXXXX",
"XXXXXXXX        XXXXXXXXXXXXXXXXXX         XXXXXXXXXXXXXXXX    ..    XXXXXXXXXXXXXXXX        XXXXXXXXXXXXXXXXXXX        XXXXXXXXX",
"XXXXXXXXXXX      XXXXXXXXXXXXXXXXX    .    XXXXXXXXXXXXXXX     ..     XXXXXXXXXXXXXXX         XXXXXXXXXXXXXXXXX      XXXXXXXXXXXX",
"XXXXXXXXXXX      XXXXXXXXXXXXXXXXX    .     XXXXXXXXXXXXXX    ....    XXXXXXXXXXXXXX     .    XXXXXXXXXXXXXXXXX      XXXXXXXXXXXX",
"XXXXXXXXXXXX      XXXXXXXXXXXXXXXX    ..    XXXXXXXXXXXXXX    ....    XXXXXXXXXXXXXX    ..    XXXXXXXXXXXXXXXX      XXXXXXXXXXXXX",
"XXXXXXXXXXXX      XXXXXXXXXXXXXXXX    ..     XXXXXXXXXXXXX    ....    XXXXXXXXXXXXX     ..    XXXXXXXXXXXXXXXX      XXXXXXXXXXXXX",
"XXXXXXXXXXXX       XXXXXXXXXXXXXXX    ...    XXXXXXXXXXXX     ....     XXXXXXXXXXXX    ...    XXXXXXXXXXXXXXX       XXXXXXXXXXXXX",
"XXXXXXXXXXXX        XXXXXXXXXXXXXX    ...    XXXXXXXXXXXX    ......    XXXXXXXXXXXX    ...    XXXXXXXXXXXXXX        XXXXXXXXXXXXX",
"XXXXXXXXXXXX        XXXXXXXXXXXXXX    ...     XXXXXXXXXXX    ......    XXXXXXXXXXX     ...    XXXXXXXXXXXXXX        XXXXXXXXXXXXX",
"XXXXXXXXXXXX         XXXXXXXXXXXXX    ....    XXXXXXXXXXX    ......    XXXXXXXXXXX    ....    XXXXXXXXXXXXX         XXXXXXXXXXXXX",
"XXXXXXXXXXXXX        XXXXXXXXXXXXX    ....    XXXXXXXXXXX    ......    XXXXXXXXXXX    ....    XXXXXXXXXXXXX        XXXXXXXXXXXXXX",
"XXXXXXXXXXXXX         XXXXXXXXXXXX    ....     XXXXXXXXX     ......     XXXXXXXXX     ....    XXXXXXXXXXXX         XXXXXXXXXXXXXX",
"XXXXXXXXXXXXX    .    XXXXXXXXXXXX    .....    XXXXXXXXX    ........    XXXXXXXXX    .....    XXXXXXXXXXXX    .    XXXXXXXXXXXXXX",
"XXXXXXXXXXXXX    .     XXXXXXXXXXX    .....    XXXXXXXXX    ........    XXXXXXXXX    .....    XXXXXXXXXXX     .    XXXXXXXXXXXXXX",
"XXXXXXXXXXXXX    ..     XXXXXXXXXX    .....     XXXXXXXX    ........    XXXXXXXX     .....    XXXXXXXXXX     ..    XXXXXXXXXXXXXX",
"XXXXXXXXXXXXX     ..    XXXXXXXXXX    ......    XXXXXXXX    ........    XXXXXXXX    ......    XXXXXXXXXX    ..     XXXXXXXXXXXXXX",
"XXXXXXXXXXXXXX    ..     XXXXXXXXX    ......    XXXXXXX     ........     XXXXXXX    ......    XXXXXXXXX     ..    XXXXXXXXXXXXXXX",
"XXXXXXXXXXXXXX    ...    XXXXXXXXX    ......     XXXXXX    ..........    XXXXXX     ......    XXXXXXXXX    ...    XXXXXXXXXXXXXXX",
"XXXXXXXXXXXXXX    ...     XXXXXXXX    .......    XXXXXX    ..........    XXXXXX    .......    XXXXXXXX     ...    XXXXXXXXXXXXXXX",
"XXXXXXXXXXXXXX    ....     XXXXXXX    .......    XXXXXX    ..........    XXXXXX    .......    XXXXXXX     ....    XXXXXXXXXXXXXXX",
"XXXXXXXXXXXXXX     ....    XXXXXXX    .......     XXXX     ..........     XXXX     .......    XXXXXXX    ....     XXXXXXXXXXXXXXX",
"XXXXXXXXXXXXXXX    ....     XXXXXX    ........    XXXX    ............    XXXX    ........    XXXXXX     ....    XXXXXXXXXXXXXXXX",
"XXXXXXXXXXXXXXX    .....    XXXXXX    ........    XXXX    ............    XXXX    ........    XXXXXX    .....    XXXXXXXXXXXXXXXX",
"XXXXXXXXXXXXXXX    .....     XXXXX    ........     XXX    ............    XXX     ........    XXXXX     .....    XXXXXXXXXXXXXXXX",
"XXXXXXXXXXXXXXX    ......    XXXXX    .........    XXX    ............    XXX    .........    XXXXX    ......    XXXXXXXXXXXXXXXX",
"XXXXXXXXXXXXXXX    ......     XXX     .........    XX     ............     XX    .........    XXXX     ......    XXXXXXXXXXXXXXXX",
"XXXXXXXXXXXXXXX     ......     XX    ..........     X    ..............    X     .........     XX     ......     XXXXXXXXXXXXXXXX",
"XXXXXXXXXXXXXXXX    .......    XX    ...........    X    ..............    X    ...........    XX    .......    XXXXXXXXXXXXXXXXX",
"XXXXXXXXXXXXXXXX    .......     X    ...........    X    ..............    X    ...........    X     .......    XXXXXXXXXXXXXXXXX",
"XXXXXXXXXXXXXXXX    ........    X    ...........         ..............         ...........    X    ........    XXXXXXXXXXXXXXXXX",
"XXXXXXXXXXXXXXXX    ........         ............        ..............        ............         ........    XXXXXXXXXXXXXXXXX",
"XXXXXXXXXXXXXXXX    .........        ............       ................       ............        .........    XXXXXXXXXXXXXXXXX",
"XXXXXXXXXXXXXXXX     .........       ............       ......    ......       ............       .........     XXXXXXXXXXXXXXXXX",
"XXXXXXXXXXXXXXXXX    .........       .....    ....      ....        ....      ....    .....       .........    XXXXXXXXXXXXXXXXXX",
"XXXXXXXXXXXXXXXXX    ..........      ...        ..                            ..        ...      ..........    XXXXXXXXXXXXXXXXXX",
"XXXXXXXXXXXXXXXXX    .....  ...                                                                  ...  .....    XXXXXXXXXXXXXXXXXX",
"XXXXXXXXXXXXXXXXX    ....                                      ..                                      ....    XXXXXXXXXXXXXXXXXX",
"XXXXXXXXXXXXXXXXX    ..                    ..                ......                ..                    ..    XXXXXXXXXXXXXXXXXX",
"XXXXXXXXXXXXXXXXX                        ......          ..............          .......                       XXXXXXXXXXXXXXXXXX",
"XXXXXXXXXXXXXXXXXX                   ......................................................                   XXXXXXXXXXXXXXXXXXX",
"XXXXXXXXXXXXXXXXXX        ............................................................................        XXXXXXXXXXXXXXXXXXX",
"XXXXXXXXXXXXXXXXXX      ................................................................................      XXXXXXXXXXXXXXXXXXX",
"XXXXXXXXXXXXXXXXXXX    ..................................................................................    XXXXXXXXXXXXXXXXXXXX",
"XXXXXXXXXXXXXXXXXXX     ................................................................................     XXXXXXXXXXXXXXXXXXXX",
"XXXXXXXXXXXXXXXXXXXX     ..............................................................................     XXXXXXXXXXXXXXXXXXXXX",
"XXXXXXXXXXXXXXXXXXXXX     ............................................................................     XXXXXXXXXXXXXXXXXXXXXX",
"XXXXXXXXXXXXXXXXXXXXXX     ..........................................................................     XXXXXXXXXXXXXXXXXXXXXXX",
"XXXXXXXXXXXXXXXXXXXXXXX    .......................                            .......................    XXXXXXXXXXXXXXXXXXXXXXXX",
"XXXXXXXXXXXXXXXXXXXXXXX     .............                                              .............     XXXXXXXXXXXXXXXXXXXXXXXX",
"XXXXXXXXXXXXXXXXXXXXXXXX     .....                                                            .....     XXXXXXXXXXXXXXXXXXXXXXXXX",
"XXXXXXXXXXXXXXXXXXXXXXXXX                                                                              XXXXXXXXXXXXXXXXXXXXXXXXXX",
"XXXXXXXXXXXXXXXXXXXXXXXXXX                         ..........................                         XXXXXXXXXXXXXXXXXXXXXXXXXXX",
"XXXXXXXXXXXXXXXXXXXXXXXXXX                ............................................                XXXXXXXXXXXXXXXXXXXXXXXXXXX",
"XXXXXXXXXXXXXXXXXXXXXXXXXXX        ..........................................................        XXXXXXXXXXXXXXXXXXXXXXXXXXXX",
"XXXXXXXXXXXXXXXXXXXXXXXXXXX    ..................................................................    XXXXXXXXXXXXXXXXXXXXXXXXXXXX",
"XXXXXXXXXXXXXXXXXXXXXXXXXXX     ................................................................     XXXXXXXXXXXXXXXXXXXXXXXXXXXX",
"XXXXXXXXXXXXXXXXXXXXXXXXXXXX    ................................................................    XXXXXXXXXXXXXXXXXXXXXXXXXXXXX",
"XXXXXXXXXXXXXXXXXXXXXXXXXXXX    ................................................................    XXXXXXXXXXXXXXXXXXXXXXXXXXXXX",
"XXXXXXXXXXXXXXXXXXXXXXXXXXXX    ................................................................    XXXXXXXXXXXXXXXXXXXXXXXXXXXXX",
"XXXXXXXXXXXXXXXXXXXXXXXXXXXX    ...................                          ...................    XXXXXXXXXXXXXXXXXXXXXXXXXXXXX",
"XXXXXXXXXXXXXXXXXXXXXXXXXXXX     ........                                              ........     XXXXXXXXXXXXXXXXXXXXXXXXXXXXX",
"XXXXXXXXXXXXXXXXXXXXXXXXXXXXX    ..                                                          ..    XXXXXXXXXXXXXXXXXXXXXXXXXXXXXX",
"XXXXXXXXXXXXXXXXXXXXXXXXXXXXX                                                                      XXXXXXXXXXXXXXXXXXXXXXXXXXXXXX",
"XXXXXXXXXXXXXXXXXXXXXXXXXXXXX                       ........................                       XXXXXXXXXXXXXXXXXXXXXXXXXXXXXX",
"XXXXXXXXXXXXXXXXXXXXXXXXXXXXX             ............................................             XXXXXXXXXXXXXXXXXXXXXXXXXXXXXX",
"XXXXXXXXXXXXXXXXXXXXXXXXXXXX        ........................................................        XXXXXXXXXXXXXXXXXXXXXXXXXXXXX",
"XXXXXXXXXXXXXXXXXXXXXXXXXXXX    ................................................................    XXXXXXXXXXXXXXXXXXXXXXXXXXXXX",
"XXXXXXXXXXXXXXXXXXXXXXXXXXX     ..................                            ..................     XXXXXXXXXXXXXXXXXXXXXXXXXXXX",
"XXXXXXXXXXXXXXXXXXXXXXXXXXX    ..........                                              ..........    XXXXXXXXXXXXXXXXXXXXXXXXXXXX",
"XXXXXXXXXXXXXXXXXXXXXXXXXX     ..                                                              ..     XXXXXXXXXXXXXXXXXXXXXXXXXXX",
"XXXXXXXXXXXXXXXXXXXXXXXXXX                                                                            XXXXXXXXXXXXXXXXXXXXXXXXXXX",
"XXXXXXXXXXXXXXXXXXXXXXXXX                          ..........................                          XXXXXXXXXXXXXXXXXXXXXXXXXX",
"XXXXXXXXXXXXXXXXXXXXXXXX                  ............................................                  XXXXXXXXXXXXXXXXXXXXXXXXX",
"XXXXXXXXXXXXXXXXXXXXXXX           ............................................................           XXXXXXXXXXXXXXXXXXXXXXXX",
"XXXXXXXXXXXXXXXXXXXXXXX     ........................................................................     XXXXXXXXXXXXXXXXXXXXXXXX",
"XXXXXXXXXXXXXXXXXXXXXXX     ........................................................................     XXXXXXXXXXXXXXXXXXXXXXXX",
"XXXXXXXXXXXXXXXXXXXXXXX    ..........................................................................    XXXXXXXXXXXXXXXXXXXXXXXX",
"XXXXXXXXXXXXXXXXXXXXXXX    ..........................................................................    XXXXXXXXXXXXXXXXXXXXXXXX",
"XXXXXXXXXXXXXXXXXXXXXXX            ..........................................................            XXXXXXXXXXXXXXXXXXXXXXXX",
"XXXXXXXXXXXXXXXXXXXXXXXX                  ............................................                  XXXXXXXXXXXXXXXXXXXXXXXXX",
"XXXXXXXXXXXXXXXXXXXXXXXXX                          ..........................                          XXXXXXXXXXXXXXXXXXXXXXXXXX",
"XXXXXXXXXXXXXXXXXXXXXXXXXX                                                                            XXXXXXXXXXXXXXXXXXXXXXXXXXX",
"XXXXXXXXXXXXXXXXXXXXXXXXXXXXXXXXXX                                                            XXXXXXXXXXXXXXXXXXXXXXXXXXXXXXXXXXX",
"XXXXXXXXXXXXXXXXXXXXXXXXXXXXXXXXXXXXXXXXX                                              XXXXXXXXXXXXXXXXXXXXXXXXXXXXXXXXXXXXXXXXXX",
"XXXXXXXXXXXXXXXXXXXXXXXXXXXXXXXXXXXXXXXXXXXXXXXXXX                            XXXXXXXXXXXXXXXXXXXXXXXXXXXXXXXXXXXXXXXXXXXXXXXXXXX",
"XXXXXXXXXXXXXXXXXXXXXXXXXXXXXXXXXXXXXXXXXXXXXXXXXXXXXXXXXXXXXXXXXXXXXXXXXXXXXXXXXXXXXXXXXXXXXXXXXXXXXXXXXXXXXXXXXXXXXXXXXXXXXXXXX",
"XXXXXXXXXXXXXXXXXXXXXXXXXXXXXXXXXXXXXXXXXXXXXXXXXXXXXXXXXXXXXXXXXXXXXXXXXXXXXXXXXXXXXXXXXXXXXXXXXXXXXXXXXXXXXXXXXXXXXXXXXXXXXXXXX",
"XXXXXXXXXXXXXXXXXXXXXXXXXXXXXXXXXXXXXXXXXXXXXXXXXXXXXXXXXXXXXXXXXXXXXXXXXXXXXXXXXXXXXXXXXXXXXXXXXXXXXXXXXXXXXXXXXXXXXXXXXXXXXXXXX",
"XXXXXXXXXXXXXXXXXXXXXXXXXXXXXXXXXXXXXXXXXXXXXXXXXXXXXXXXXXXXXXXXXXXXXXXXXXXXXXXXXXXXXXXXXXXXXXXXXXXXXXXXXXXXXXXXXXXXXXXXXXXXXXXXX",
"XXXXXXXXXXXXXXXXXXXXXXXXXXXXXXXXXXXXXXXXXXXXXXXXXXXXXXXXXXXXXXXXXXXXXXXXXXXXXXXXXXXXXXXXXXXXXXXXXXXXXXXXXXXXXXXXXXXXXXXXXXXXXXXXX",
"XXXXXXXXXXXXXXXXXXXXXXXXXXXXXXXXXXXXXXXXXXXXXXXXXXXXXXXXXXXXXXXXXXXXXXXXXXXXXXXXXXXXXXXXXXXXXXXXXXXXXXXXXXXXXXXXXXXXXXXXXXXXXXXXX",
"XXXXXXXXXXXXXXXXXXXXXXXXXXXXXXXXXXXXXXXXXXXXXXXXXXXXXXXXXXXXXXXXXXXXXXXXXXXXXXXXXXXXXXXXXXXXXXXXXXXXXXXXXXXXXXXXXXXXXXXXXXXXXXXXX",
"XXXXXXXXXXXXXXXXXXXXXXXXXXXXXXXXXXXXXXXXXXXXXXXXXXXXXXXXXXXXXXXXXXXXXXXXXXXXXXXXXXXXXXXXXXXXXXXXXXXXXXXXXXXXXXXXXXXXXXXXXXXXXXXXX"
};
